<svg viewBox="0 0 128 128" xmlns="http://www.w3.org/2000/svg">
  <!-- Favicon version - optimized for small sizes -->
  <circle cx="64" cy="64" r="62" fill="#0a0e14"/>

  <!-- 8-pointed star -->
  <path d="M 64 20 L 68 58 L 60 58 Z" fill="#d4af37"/>
  <path d="M 64 108 L 68 70 L 60 70 Z" fill="#d4af37"/>
  <path d="M 20 64 L 58 68 L 58 60 Z" fill="#d4af37"/>
  <path d="M 108 64 L 70 68 L 70 60 Z" fill="#d4af37"/>

  <path d="M 36 36 L 56 54 L 50 58 L 32 40 Z" fill="#c19a6b"/>
  <path d="M 92 36 L 74 54 L 70 50 L 96 32 Z" fill="#c19a6b"/>
  <path d="M 36 92 L 54 74 L 58 78 L 32 96 Z" fill="#c19a6b"/>
  <path d="M 92 92 L 74 74 L 78 70 L 96 96 Z" fill="#c19a6b"/>

  <circle cx="64" cy="64" r="8" fill="#4a6fa5"/>
</svg>
