<svg xmlns="http://www.w3.org/2000/svg" viewBox="0 0 26 26" width="26" height="26">
  <rect width="26" height="26" fill="#0a0a0a"/>
  <path fill="#c9a962" d="M15.7607 0C15.5023 1.2245 15.1555 2.51143 14.8828 3.75586C14.5595 5.2864 14.2886 6.82851 14.0723 8.37793C13.9999 8.89719 13.862 9.51826 13.8281 10.0244C14.1767 9.77338 14.5722 9.41902 14.9043 9.13477C15.5966 8.54955 16.2748 7.94682 16.9375 7.32812C18.639 5.77884 20.3022 4.18778 21.9248 2.55566C22.1048 2.76727 22.2828 2.93944 22.4863 3.12695C22.0552 3.46834 21.3039 4.30988 20.8857 4.73535C19.4912 6.15339 18.1366 7.61164 16.8242 9.10645C16.2093 9.79897 15.6333 10.5236 15.002 11.1982C15.8992 11.3203 16.894 11.2814 17.8066 11.3545C20.5321 11.5728 23.266 11.5861 26 11.5889C26 11.8698 26.0021 12.1017 25.9717 12.3828C24.6743 12.382 23.3767 12.4031 22.0801 12.4463C20.919 12.4668 19.7577 12.5038 18.5977 12.5576C17.1969 12.6343 15.7032 12.7687 14.293 12.8672C14.6022 13.3346 15.6951 14.5496 16.0938 15.0029C18.0694 17.2497 20.1997 19.6051 22.3555 21.6758C22.1667 21.8567 21.9736 22.0371 21.7969 22.2295C21.3282 21.7829 20.8663 21.2927 20.3945 20.8369C19.1015 19.5889 17.7898 18.3599 16.4609 17.1504C15.738 16.4919 15.0103 15.8675 14.2773 15.2217C13.9772 14.9572 13.6027 14.6663 13.3359 14.3789C13.3204 14.7477 13.2517 15.1808 13.2285 15.5664L12.959 20.4551C12.8819 22.0299 12.8889 23.6992 12.874 25.2793C12.8593 25.4942 12.8631 25.7769 12.8594 25.9971L12.0508 26C12.0602 23.4816 12.01 20.9632 11.9004 18.4473C11.8609 17.4924 11.6547 16.2744 11.6992 15.3516C11.0529 16.0863 10.1847 17.3324 9.62012 18.1465C8.43866 19.8501 7.15094 21.8246 6.14941 23.6396C6.04792 23.3731 5.78334 23.0187 5.61133 22.7773C4.59249 21.3479 2.94695 19.8164 1.45605 18.8945C1.97989 18.6587 2.869 18.0729 3.38379 17.751C4.85425 16.8501 6.29026 15.8937 7.68848 14.8838C8.24548 14.4826 9.22366 13.695 9.75195 13.3984C8.92611 13.4607 8.42643 13.5634 7.61914 13.6816C5.0485 14.0635 2.50394 14.6055 0 15.3027C0.119245 14.9555 0.158617 14.4217 0.210938 14.0596C0.416026 12.6397 0.44861 11.3654 0.222656 9.94434C0.159958 9.55 0.129004 9.10806 0.0273438 8.71289C0.389736 8.76079 0.84458 8.90526 1.20996 8.99609C1.95001 9.18383 2.69294 9.36001 3.43848 9.52441C4.62565 9.77423 5.81659 10.006 7.01074 10.2197C7.43594 10.2926 7.85071 10.3232 8.28223 10.4053C7.94467 10.1826 7.64524 9.94052 7.31836 9.7041C6.85159 9.37342 6.38173 9.04699 5.90918 8.72461C4.4234 7.71509 2.90004 6.76185 1.34277 5.86719C2.47365 5.17475 3.95816 3.86486 4.81641 2.85156C5.01089 2.62165 5.19917 2.38552 5.37988 2.14453C5.53301 1.93626 5.86302 1.36096 6.03418 1.24805C6.13984 1.29204 6.67963 2.28713 6.78027 2.4541C8.08068 4.61151 9.46765 6.63865 10.9609 8.66699C10.8301 7.94625 10.7471 7.26188 10.6279 6.55273C10.4453 5.5197 10.2445 4.48997 10.0264 3.46387C9.88821 2.82121 9.72255 2.15569 9.57227 1.51367C9.45461 1.01111 9.27954 0.519084 9.18262 0.00292969C9.81041 0.0962944 10.5087 0.240564 11.1299 0.302734C12.7215 0.461896 14.1961 0.267307 15.7607 0Z"/>
</svg>
